<mxfile host="app.diagrams.net" agent="Mozilla/5.0 (X11; Linux x86_64; rv:129.0) Gecko/20100101 Firefox/129.0" version="24.7.12">
  <diagram name="Page-1" id="ea5HnzyRSVyo8oVWHzZa">
    <mxGraphModel dx="1434" dy="759" grid="1" gridSize="10" guides="1" tooltips="1" connect="1" arrows="1" fold="1" page="1" pageScale="1" pageWidth="850" pageHeight="1100" math="0" shadow="0">
      <root>
        <mxCell id="0" />
        <mxCell id="1" parent="0" />
        <mxCell id="nvGb3xPD4UyPKDL1qzBu-31" style="edgeStyle=orthogonalEdgeStyle;rounded=0;orthogonalLoop=1;jettySize=auto;html=1;" edge="1" parent="1" source="nvGb3xPD4UyPKDL1qzBu-1" target="nvGb3xPD4UyPKDL1qzBu-2">
          <mxGeometry relative="1" as="geometry" />
        </mxCell>
        <mxCell id="nvGb3xPD4UyPKDL1qzBu-1" value="consume" style="ellipse;whiteSpace=wrap;html=1;aspect=fixed;" vertex="1" parent="1">
          <mxGeometry x="50" y="180" width="80" height="80" as="geometry" />
        </mxCell>
        <mxCell id="nvGb3xPD4UyPKDL1qzBu-32" style="edgeStyle=orthogonalEdgeStyle;rounded=0;orthogonalLoop=1;jettySize=auto;html=1;entryX=0;entryY=0.5;entryDx=0;entryDy=0;" edge="1" parent="1" source="nvGb3xPD4UyPKDL1qzBu-2" target="nvGb3xPD4UyPKDL1qzBu-3">
          <mxGeometry relative="1" as="geometry" />
        </mxCell>
        <mxCell id="nvGb3xPD4UyPKDL1qzBu-33" style="edgeStyle=orthogonalEdgeStyle;rounded=0;orthogonalLoop=1;jettySize=auto;html=1;entryX=0;entryY=0.5;entryDx=0;entryDy=0;" edge="1" parent="1" source="nvGb3xPD4UyPKDL1qzBu-2" target="nvGb3xPD4UyPKDL1qzBu-9">
          <mxGeometry relative="1" as="geometry" />
        </mxCell>
        <mxCell id="nvGb3xPD4UyPKDL1qzBu-34" style="edgeStyle=orthogonalEdgeStyle;rounded=0;orthogonalLoop=1;jettySize=auto;html=1;entryX=0;entryY=0.5;entryDx=0;entryDy=0;" edge="1" parent="1" source="nvGb3xPD4UyPKDL1qzBu-2" target="nvGb3xPD4UyPKDL1qzBu-12">
          <mxGeometry relative="1" as="geometry" />
        </mxCell>
        <mxCell id="nvGb3xPD4UyPKDL1qzBu-35" style="edgeStyle=orthogonalEdgeStyle;rounded=0;orthogonalLoop=1;jettySize=auto;html=1;entryX=0;entryY=0.5;entryDx=0;entryDy=0;" edge="1" parent="1" source="nvGb3xPD4UyPKDL1qzBu-2" target="nvGb3xPD4UyPKDL1qzBu-13">
          <mxGeometry relative="1" as="geometry" />
        </mxCell>
        <mxCell id="nvGb3xPD4UyPKDL1qzBu-2" value="context" style="ellipse;whiteSpace=wrap;html=1;aspect=fixed;" vertex="1" parent="1">
          <mxGeometry x="200" y="180" width="80" height="80" as="geometry" />
        </mxCell>
        <mxCell id="nvGb3xPD4UyPKDL1qzBu-3" value="&lt;div&gt;create&lt;/div&gt;&lt;div&gt;entry&lt;br&gt;&lt;/div&gt;" style="ellipse;whiteSpace=wrap;html=1;aspect=fixed;" vertex="1" parent="1">
          <mxGeometry x="410" y="30" width="80" height="80" as="geometry" />
        </mxCell>
        <mxCell id="nvGb3xPD4UyPKDL1qzBu-9" value="read&lt;div&gt;entry&lt;br&gt;&lt;/div&gt;" style="ellipse;whiteSpace=wrap;html=1;aspect=fixed;" vertex="1" parent="1">
          <mxGeometry x="410" y="130" width="80" height="80" as="geometry" />
        </mxCell>
        <mxCell id="nvGb3xPD4UyPKDL1qzBu-12" value="update&lt;div&gt;entry&lt;br&gt;&lt;/div&gt;" style="ellipse;whiteSpace=wrap;html=1;aspect=fixed;" vertex="1" parent="1">
          <mxGeometry x="410" y="230" width="80" height="80" as="geometry" />
        </mxCell>
        <mxCell id="nvGb3xPD4UyPKDL1qzBu-13" value="delete&lt;br&gt;&lt;div&gt;entry&lt;br&gt;&lt;/div&gt;" style="ellipse;whiteSpace=wrap;html=1;aspect=fixed;" vertex="1" parent="1">
          <mxGeometry x="410" y="330" width="80" height="80" as="geometry" />
        </mxCell>
      </root>
    </mxGraphModel>
  </diagram>
</mxfile>
